<svg width="1181" height="276" viewBox="0 0 1181 276" fill="none" xmlns="http://www.w3.org/2000/svg">
<rect x="47" y="64" width="51" height="147" rx="25.5" fill="#6366f1"/>
<rect x="161" y="64" width="51" height="147" rx="25.5" fill="#6366f1"/>
<rect x="105" y="161" width="50" height="50" rx="25" fill="#6366f1"/>
<rect x="220" y="64" width="50" height="50" rx="25" fill="#6366f1"/>
<rect x="342" y="64" width="50" height="50" rx="25" fill="#6366f1"/>
<rect x="278" y="64" width="51" height="147" rx="25.5" fill="#6366f1"/>
<rect x="342" y="123" width="50" height="88" rx="25" fill="#6366f1"/>
<path d="M546.286 86.7273H564.994V154.197C564.994 161.593 563.246 168.098 559.75 173.712C556.287 179.326 551.413 183.714 545.126 186.874C538.84 190 531.495 191.563 523.09 191.563C514.652 191.563 507.29 190 501.004 186.874C494.717 183.714 489.843 179.326 486.38 173.712C482.917 168.098 481.186 161.593 481.186 154.197V86.7273H499.894V152.634C499.894 156.937 500.835 160.77 502.718 164.131C504.634 167.493 507.324 170.132 510.786 172.048C514.249 173.931 518.35 174.872 523.09 174.872C527.83 174.872 531.932 173.931 535.394 172.048C538.89 170.132 541.58 167.493 543.462 164.131C545.345 160.77 546.286 156.937 546.286 152.634V86.7273ZM602.776 144.616V190H584.522V112.545H601.969V125.707H602.877C604.659 121.37 607.499 117.924 611.399 115.369C615.332 112.814 620.19 111.537 625.972 111.537C631.317 111.537 635.973 112.68 639.94 114.966C643.941 117.252 647.033 120.563 649.219 124.9C651.437 129.237 652.53 134.498 652.496 140.683V190H634.242V143.507C634.242 138.33 632.897 134.279 630.208 131.354C627.552 128.43 623.871 126.967 619.165 126.967C615.971 126.967 613.13 127.673 610.643 129.085C608.189 130.464 606.256 132.464 604.844 135.086C603.465 137.708 602.776 140.885 602.776 144.616ZM671.053 190V112.545H689.307V190H671.053ZM680.231 101.553C677.34 101.553 674.852 100.594 672.768 98.6783C670.683 96.7285 669.641 94.392 669.641 91.669C669.641 88.9124 670.683 86.576 672.768 84.6598C674.852 82.71 677.34 81.7351 680.231 81.7351C683.155 81.7351 685.643 82.71 687.694 84.6598C689.778 86.576 690.82 88.9124 690.82 91.669C690.82 94.392 689.778 96.7285 687.694 98.6783C685.643 100.594 683.155 101.553 680.231 101.553ZM765.01 115.117C764.539 110.713 762.556 107.284 759.059 104.83C755.597 102.376 751.092 101.149 745.545 101.149C741.645 101.149 738.301 101.737 735.51 102.914C732.72 104.091 730.585 105.687 729.106 107.705C727.627 109.722 726.871 112.024 726.837 114.613C726.837 116.764 727.324 118.63 728.299 120.21C729.308 121.79 730.669 123.135 732.384 124.244C734.098 125.32 735.998 126.228 738.082 126.967C740.166 127.707 742.267 128.329 744.385 128.833L754.067 131.254C757.967 132.161 761.715 133.388 765.312 134.935C768.943 136.481 772.187 138.431 775.044 140.784C777.935 143.137 780.221 145.978 781.902 149.306C783.583 152.634 784.424 156.534 784.424 161.005C784.424 167.056 782.877 172.384 779.784 176.99C776.692 181.562 772.221 185.142 766.371 187.731C760.555 190.286 753.512 191.563 745.243 191.563C737.208 191.563 730.232 190.319 724.316 187.832C718.433 185.344 713.827 181.713 710.499 176.94C707.204 172.166 705.423 166.35 705.154 159.492H723.559C723.828 163.089 724.938 166.081 726.887 168.468C728.837 170.855 731.375 172.637 734.502 173.813C737.662 174.99 741.192 175.578 745.091 175.578C749.159 175.578 752.722 174.973 755.782 173.763C758.874 172.519 761.295 170.804 763.043 168.619C764.791 166.401 765.682 163.812 765.716 160.854C765.682 158.164 764.892 155.946 763.346 154.197C761.799 152.416 759.631 150.937 756.841 149.76C754.084 148.55 750.857 147.474 747.159 146.533L735.409 143.507C726.904 141.322 720.181 138.011 715.239 133.573C710.331 129.102 707.877 123.169 707.877 115.773C707.877 109.688 709.524 104.36 712.819 99.7876C716.147 95.2157 720.668 91.669 726.383 89.1477C732.098 86.5928 738.569 85.3153 745.797 85.3153C753.126 85.3153 759.547 86.5928 765.06 89.1477C770.607 91.669 774.96 95.1821 778.12 99.6868C781.28 104.158 782.911 109.301 783.012 115.117H765.01ZM834.081 191.513C826.349 191.513 819.709 189.815 814.162 186.42C808.649 183.024 804.397 178.335 801.405 172.351C798.446 166.333 796.967 159.408 796.967 151.575C796.967 143.709 798.48 136.767 801.506 130.749C804.531 124.698 808.8 119.992 814.314 116.63C819.861 113.235 826.416 111.537 833.98 111.537C840.266 111.537 845.83 112.697 850.671 115.016C855.546 117.302 859.428 120.546 862.319 124.749C865.211 128.917 866.858 133.792 867.261 139.372H849.814C849.108 135.641 847.427 132.531 844.771 130.043C842.149 127.522 838.636 126.261 834.232 126.261C830.501 126.261 827.223 127.27 824.399 129.287C821.575 131.27 819.373 134.128 817.793 137.859C816.247 141.591 815.474 146.062 815.474 151.273C815.474 156.551 816.247 161.089 817.793 164.888C819.34 168.653 821.508 171.561 824.298 173.612C827.122 175.629 830.433 176.637 834.232 176.637C836.921 176.637 839.325 176.133 841.443 175.124C843.595 174.082 845.393 172.586 846.839 170.636C848.284 168.687 849.276 166.317 849.814 163.526H867.261C866.824 169.006 865.211 173.864 862.42 178.099C859.63 182.302 855.831 185.596 851.024 187.983C846.217 190.336 840.569 191.513 834.081 191.513ZM882.25 190V112.545H899.95V125.455H900.757C902.169 120.983 904.589 117.538 908.018 115.117C911.481 112.663 915.431 111.436 919.868 111.436C920.877 111.436 922.003 111.487 923.247 111.587C924.524 111.655 925.583 111.772 926.424 111.94V128.732C925.65 128.463 924.423 128.228 922.743 128.026C921.095 127.791 919.498 127.673 917.952 127.673C914.624 127.673 911.632 128.396 908.976 129.842C906.354 131.254 904.287 133.22 902.774 135.741C901.261 138.263 900.505 141.171 900.505 144.465V190H882.25ZM938.551 190V112.545H956.805V190H938.551ZM947.729 101.553C944.838 101.553 942.35 100.594 940.266 98.6783C938.181 96.7285 937.139 94.392 937.139 91.669C937.139 88.9124 938.181 86.576 940.266 84.6598C942.35 82.71 944.838 81.7351 947.729 81.7351C950.653 81.7351 953.141 82.71 955.192 84.6598C957.276 86.576 958.318 88.9124 958.318 91.669C958.318 94.392 957.276 96.7285 955.192 98.6783C953.141 100.594 950.653 101.553 947.729 101.553ZM976.383 190V86.7273H994.638V125.354H995.394C996.335 123.471 997.663 121.471 999.378 119.353C1001.09 117.201 1003.41 115.369 1006.34 113.857C1009.26 112.31 1012.99 111.537 1017.53 111.537C1023.51 111.537 1028.91 113.067 1033.72 116.126C1038.56 119.151 1042.39 123.639 1045.22 129.589C1048.07 135.506 1049.5 142.768 1049.5 151.374C1049.5 159.879 1048.11 167.107 1045.32 173.057C1042.53 179.007 1038.73 183.545 1033.92 186.672C1029.11 189.798 1023.67 191.362 1017.58 191.362C1013.14 191.362 1009.46 190.622 1006.54 189.143C1003.61 187.664 1001.26 185.882 999.479 183.798C997.73 181.68 996.369 179.679 995.394 177.797H994.335V190H976.383ZM994.285 151.273C994.285 156.282 994.991 160.669 996.403 164.434C997.848 168.199 999.916 171.141 1002.6 173.259C1005.33 175.343 1008.62 176.385 1012.49 176.385C1016.52 176.385 1019.9 175.309 1022.62 173.158C1025.35 170.973 1027.4 167.997 1028.78 164.232C1030.19 160.433 1030.89 156.114 1030.89 151.273C1030.89 146.465 1030.2 142.196 1028.83 138.464C1027.45 134.733 1025.4 131.808 1022.67 129.69C1019.95 127.572 1016.56 126.513 1012.49 126.513C1008.59 126.513 1005.28 127.539 1002.55 129.589C999.831 131.64 997.764 134.514 996.352 138.212C994.974 141.91 994.285 146.264 994.285 151.273ZM1099.31 191.513C1091.54 191.513 1084.84 189.899 1079.19 186.672C1073.58 183.411 1069.26 178.805 1066.23 172.855C1063.2 166.871 1061.69 159.828 1061.69 151.727C1061.69 143.759 1063.2 136.767 1066.23 130.749C1069.29 124.698 1073.56 119.992 1079.04 116.63C1084.52 113.235 1090.96 111.537 1098.35 111.537C1103.13 111.537 1107.63 112.31 1111.87 113.857C1116.14 115.369 1119.9 117.723 1123.16 120.916C1126.46 124.11 1129.04 128.178 1130.93 133.119C1132.81 138.027 1133.75 143.877 1133.75 150.668V156.265H1070.26V143.961H1116.25C1116.22 140.465 1115.46 137.355 1113.98 134.632C1112.5 131.875 1110.44 129.707 1107.78 128.127C1105.16 126.547 1102.1 125.757 1098.6 125.757C1094.87 125.757 1091.59 126.665 1088.77 128.48C1085.95 130.262 1083.74 132.615 1082.16 135.54C1080.62 138.431 1079.83 141.608 1079.79 145.07V155.811C1079.79 160.316 1080.62 164.182 1082.27 167.409C1083.91 170.603 1086.22 173.057 1089.17 174.771C1092.13 176.452 1095.59 177.293 1099.56 177.293C1102.22 177.293 1104.62 176.923 1106.77 176.183C1108.92 175.41 1110.79 174.284 1112.37 172.805C1113.95 171.326 1115.14 169.493 1115.95 167.308L1132.99 169.224C1131.92 173.729 1129.87 177.662 1126.84 181.024C1123.85 184.352 1120.02 186.941 1115.35 188.79C1110.67 190.605 1105.33 191.513 1099.31 191.513Z" fill="#161111" fill-opacity="0.82"/>
</svg>
