<svg width="1101" height="172" viewBox="0 0 1101 172" fill="none" xmlns="http://www.w3.org/2000/svg">
<foreignObject x="0" y="0" width="0" height="0"><div xmlns="http://www.w3.org/1999/xhtml" style="backdrop-filter:blur(0px);clip-path:url(#bgblur_0_2006_13_clip_path);height:100%;width:100%"></div></foreignObject><rect data-figma-bg-blur-radius="0" y="12" width="51" height="147" rx="25.5" fill="#6366F1"/>
<foreignObject x="0" y="0" width="0" height="0"><div xmlns="http://www.w3.org/1999/xhtml" style="backdrop-filter:blur(0px);clip-path:url(#bgblur_1_2006_13_clip_path);height:100%;width:100%"></div></foreignObject><rect data-figma-bg-blur-radius="0" x="114" y="12" width="51" height="147" rx="25.5" fill="#6366F1"/>
<foreignObject x="0" y="0" width="0" height="0"><div xmlns="http://www.w3.org/1999/xhtml" style="backdrop-filter:blur(0px);clip-path:url(#bgblur_2_2006_13_clip_path);height:100%;width:100%"></div></foreignObject><rect data-figma-bg-blur-radius="0" x="58" y="109" width="50" height="50" rx="25" fill="#6366F1"/>
<foreignObject x="0" y="0" width="0" height="0"><div xmlns="http://www.w3.org/1999/xhtml" style="backdrop-filter:blur(0px);clip-path:url(#bgblur_3_2006_13_clip_path);height:100%;width:100%"></div></foreignObject><rect data-figma-bg-blur-radius="0" x="173" y="12" width="50" height="50" rx="25" fill="#6366F1"/>
<foreignObject x="0" y="0" width="0" height="0"><div xmlns="http://www.w3.org/1999/xhtml" style="backdrop-filter:blur(0px);clip-path:url(#bgblur_4_2006_13_clip_path);height:100%;width:100%"></div></foreignObject><rect data-figma-bg-blur-radius="0" x="295" y="12" width="50" height="50" rx="25" fill="#6366F1"/>
<foreignObject x="0" y="0" width="0" height="0"><div xmlns="http://www.w3.org/1999/xhtml" style="backdrop-filter:blur(0px);clip-path:url(#bgblur_5_2006_13_clip_path);height:100%;width:100%"></div></foreignObject><rect data-figma-bg-blur-radius="0" x="231" y="12" width="51" height="147" rx="25.5" fill="#6366F1"/>
<foreignObject x="0" y="0" width="0" height="0"><div xmlns="http://www.w3.org/1999/xhtml" style="backdrop-filter:blur(0px);clip-path:url(#bgblur_6_2006_13_clip_path);height:100%;width:100%"></div></foreignObject><rect data-figma-bg-blur-radius="0" x="295" y="71" width="50" height="88" rx="25" fill="#6366F1"/>
<path d="M499.286 34.7273H517.994V102.197C517.994 109.593 516.246 116.098 512.75 121.712C509.287 127.326 504.413 131.714 498.126 134.874C491.84 138 484.495 139.563 476.09 139.563C467.652 139.563 460.29 138 454.004 134.874C447.717 131.714 442.843 127.326 439.38 121.712C435.917 116.098 434.186 109.593 434.186 102.197V34.7273H452.894V100.634C452.894 104.937 453.835 108.77 455.718 112.131C457.634 115.493 460.324 118.132 463.786 120.048C467.249 121.931 471.35 122.872 476.09 122.872C480.83 122.872 484.932 121.931 488.394 120.048C491.89 118.132 494.58 115.493 496.462 112.131C498.345 108.77 499.286 104.937 499.286 100.634V34.7273ZM555.776 92.6165V138H537.522V60.5455H554.969V73.7067H555.877C557.659 69.37 560.499 65.9242 564.399 63.3693C568.332 60.8144 573.19 59.5369 578.972 59.5369C584.317 59.5369 588.973 60.6799 592.94 62.9659C596.941 65.2519 600.033 68.5632 602.219 72.8999C604.437 77.2365 605.53 82.4976 605.496 88.6832V138H587.242V91.5071C587.242 86.33 585.897 82.2791 583.208 79.3544C580.552 76.4297 576.871 74.9673 572.165 74.9673C568.971 74.9673 566.13 75.6733 563.643 77.0852C561.189 78.4635 559.256 80.4638 557.844 83.0859C556.465 85.7081 555.776 88.8849 555.776 92.6165ZM624.053 138V60.5455H642.307V138H624.053ZM633.231 49.5526C630.34 49.5526 627.852 48.5945 625.768 46.6783C623.683 44.7285 622.641 42.392 622.641 39.669C622.641 36.9124 623.683 34.576 625.768 32.6598C627.852 30.71 630.34 29.7351 633.231 29.7351C636.155 29.7351 638.643 30.71 640.694 32.6598C642.778 34.576 643.82 36.9124 643.82 39.669C643.82 42.392 642.778 44.7285 640.694 46.6783C638.643 48.5945 636.155 49.5526 633.231 49.5526ZM718.01 63.1172C717.539 58.7133 715.556 55.2843 712.059 52.8303C708.597 50.3762 704.092 49.1491 698.545 49.1491C694.645 49.1491 691.301 49.7375 688.51 50.9141C685.72 52.0907 683.585 53.6875 682.106 55.7045C680.627 57.7216 679.871 60.0244 679.837 62.6129C679.837 64.7644 680.324 66.6302 681.299 68.2102C682.308 69.7902 683.669 71.1349 685.384 72.2443C687.098 73.3201 688.998 74.2277 691.082 74.9673C693.166 75.7069 695.267 76.3288 697.385 76.8331L707.067 79.2535C710.967 80.1612 714.715 81.3883 718.312 82.9347C721.943 84.4811 725.187 86.4309 728.044 88.7841C730.935 91.1373 733.221 93.978 734.902 97.3061C736.583 100.634 737.424 104.534 737.424 109.005C737.424 115.056 735.877 120.384 732.784 124.99C729.692 129.562 725.221 133.142 719.371 135.731C713.555 138.286 706.512 139.563 698.243 139.563C690.208 139.563 683.232 138.319 677.316 135.832C671.433 133.344 666.827 129.713 663.499 124.94C660.204 120.166 658.423 114.35 658.154 107.492H676.559C676.828 111.089 677.938 114.081 679.887 116.468C681.837 118.855 684.375 120.637 687.502 121.813C690.662 122.99 694.192 123.578 698.091 123.578C702.159 123.578 705.722 122.973 708.782 121.763C711.874 120.519 714.295 118.804 716.043 116.619C717.791 114.401 718.682 111.812 718.716 108.854C718.682 106.164 717.892 103.946 716.346 102.197C714.799 100.416 712.631 98.9366 709.841 97.7599C707.084 96.5497 703.857 95.474 700.159 94.5327L688.409 91.5071C679.904 89.322 673.181 86.0107 668.239 81.5732C663.331 77.102 660.877 71.1686 660.877 63.7727C660.877 57.688 662.524 52.3596 665.819 47.7876C669.147 43.2157 673.668 39.669 679.383 37.1477C685.098 34.5928 691.569 33.3153 698.797 33.3153C706.126 33.3153 712.547 34.5928 718.06 37.1477C723.607 39.669 727.96 43.1821 731.12 47.6868C734.28 52.1579 735.911 57.3014 736.012 63.1172H718.01ZM787.081 139.513C779.349 139.513 772.709 137.815 767.162 134.42C761.649 131.024 757.397 126.335 754.405 120.351C751.446 114.333 749.967 107.408 749.967 99.5753C749.967 91.7088 751.48 84.7668 754.506 78.7493C757.531 72.6982 761.8 67.9917 767.314 64.63C772.861 61.2346 779.416 59.5369 786.98 59.5369C793.266 59.5369 798.83 60.6967 803.671 63.0163C808.546 65.3023 812.428 68.5464 815.319 72.7486C818.211 76.9171 819.858 81.7917 820.261 87.3722H802.814C802.108 83.6406 800.427 80.531 797.771 78.0433C795.149 75.522 791.636 74.2614 787.232 74.2614C783.501 74.2614 780.223 75.2699 777.399 77.2869C774.575 79.2704 772.373 82.1278 770.793 85.8594C769.247 89.5909 768.474 94.062 768.474 99.2727C768.474 104.551 769.247 109.089 770.793 112.888C772.34 116.653 774.508 119.561 777.298 121.612C780.122 123.629 783.433 124.637 787.232 124.637C789.921 124.637 792.325 124.133 794.443 123.124C796.595 122.082 798.393 120.586 799.839 118.636C801.284 116.687 802.276 114.317 802.814 111.526H820.261C819.824 117.006 818.211 121.864 815.42 126.099C812.63 130.302 808.831 133.596 804.024 135.983C799.217 138.336 793.569 139.513 787.081 139.513ZM835.25 138V60.5455H852.95V73.4545H853.757C855.169 68.9834 857.589 65.5376 861.018 63.1172C864.481 60.6631 868.431 59.4361 872.868 59.4361C873.877 59.4361 875.003 59.4865 876.247 59.5874C877.524 59.6546 878.583 59.7723 879.424 59.9403V76.7322C878.65 76.4633 877.423 76.228 875.743 76.0263C874.095 75.791 872.498 75.6733 870.952 75.6733C867.624 75.6733 864.632 76.3961 861.976 77.8416C859.354 79.2535 857.287 81.2202 855.774 83.7415C854.261 86.2628 853.505 89.1707 853.505 92.4652V138H835.25ZM891.551 138V60.5455H909.805V138H891.551ZM900.729 49.5526C897.838 49.5526 895.35 48.5945 893.266 46.6783C891.181 44.7285 890.139 42.392 890.139 39.669C890.139 36.9124 891.181 34.576 893.266 32.6598C895.35 30.71 897.838 29.7351 900.729 29.7351C903.653 29.7351 906.141 30.71 908.192 32.6598C910.276 34.576 911.318 36.9124 911.318 39.669C911.318 42.392 910.276 44.7285 908.192 46.6783C906.141 48.5945 903.653 49.5526 900.729 49.5526ZM929.383 138V34.7273H947.638V73.3537H948.394C949.335 71.4711 950.663 69.4709 952.378 67.353C954.092 65.2015 956.412 63.3693 959.336 61.8565C962.261 60.3101 965.993 59.5369 970.531 59.5369C976.515 59.5369 981.911 61.0665 986.718 64.1257C991.559 67.1513 995.391 71.6392 998.215 77.5895C1001.07 83.5062 1002.5 90.7675 1002.5 99.3736C1002.5 107.879 1001.11 115.107 998.316 121.057C995.526 127.007 991.727 131.545 986.92 134.672C982.112 137.798 976.666 139.362 970.582 139.362C966.144 139.362 962.463 138.622 959.538 137.143C956.613 135.664 954.26 133.882 952.479 131.798C950.73 129.68 949.369 127.679 948.394 125.797H947.335V138H929.383ZM947.285 99.2727C947.285 104.282 947.991 108.669 949.403 112.434C950.848 116.199 952.916 119.141 955.605 121.259C958.328 123.343 961.622 124.385 965.488 124.385C969.523 124.385 972.901 123.309 975.624 121.158C978.347 118.973 980.398 115.997 981.776 112.232C983.188 108.433 983.894 104.114 983.894 99.2727C983.894 94.4654 983.205 90.196 981.827 86.4645C980.448 82.733 978.398 79.8082 975.675 77.6903C972.952 75.5724 969.556 74.5135 965.488 74.5135C961.589 74.5135 958.278 75.5388 955.555 77.5895C952.831 79.6401 950.764 82.5144 949.352 86.2124C947.974 89.9103 947.285 94.2637 947.285 99.2727ZM1052.31 139.513C1044.54 139.513 1037.84 137.899 1032.19 134.672C1026.58 131.411 1022.26 126.805 1019.23 120.855C1016.2 114.871 1014.69 107.828 1014.69 99.7266C1014.69 91.7592 1016.2 84.7668 1019.23 78.7493C1022.29 72.6982 1026.56 67.9917 1032.04 64.63C1037.52 61.2346 1043.96 59.5369 1051.35 59.5369C1056.13 59.5369 1060.63 60.3101 1064.87 61.8565C1069.14 63.3693 1072.9 65.7225 1076.16 68.9162C1079.46 72.1098 1082.04 76.1776 1083.93 81.1193C1085.81 86.0275 1086.75 91.8769 1086.75 98.6676V104.265H1023.26V91.9609H1069.25C1069.22 88.4647 1068.46 85.3551 1066.98 82.6321C1065.5 79.8755 1063.44 77.7071 1060.78 76.1271C1058.16 74.5471 1055.1 73.7571 1051.6 73.7571C1047.87 73.7571 1044.59 74.6648 1041.77 76.4801C1038.95 78.2618 1036.74 80.6151 1035.16 83.5398C1033.62 86.4309 1032.83 89.6077 1032.79 93.0703V103.811C1032.79 108.316 1033.62 112.182 1035.27 115.409C1036.91 118.603 1039.22 121.057 1042.17 122.771C1045.13 124.452 1048.59 125.293 1052.56 125.293C1055.22 125.293 1057.62 124.923 1059.77 124.183C1061.92 123.41 1063.79 122.284 1065.37 120.805C1066.95 119.326 1068.14 117.493 1068.95 115.308L1085.99 117.224C1084.92 121.729 1082.87 125.662 1079.84 129.024C1076.85 132.352 1073.02 134.941 1068.35 136.79C1063.67 138.605 1058.33 139.513 1052.31 139.513Z" fill="#EAF0FF" fill-opacity="0.82"/>
<defs>
<clipPath id="bgblur_0_2006_13_clip_path" transform="translate(0 0)"><rect y="12" width="51" height="147" rx="25.5"/>
</clipPath><clipPath id="bgblur_1_2006_13_clip_path" transform="translate(0 0)"><rect x="114" y="12" width="51" height="147" rx="25.5"/>
</clipPath><clipPath id="bgblur_2_2006_13_clip_path" transform="translate(0 0)"><rect x="58" y="109" width="50" height="50" rx="25"/>
</clipPath><clipPath id="bgblur_3_2006_13_clip_path" transform="translate(0 0)"><rect x="173" y="12" width="50" height="50" rx="25"/>
</clipPath><clipPath id="bgblur_4_2006_13_clip_path" transform="translate(0 0)"><rect x="295" y="12" width="50" height="50" rx="25"/>
</clipPath><clipPath id="bgblur_5_2006_13_clip_path" transform="translate(0 0)"><rect x="231" y="12" width="51" height="147" rx="25.5"/>
</clipPath><clipPath id="bgblur_6_2006_13_clip_path" transform="translate(0 0)"><rect x="295" y="71" width="50" height="88" rx="25"/>
</clipPath></defs>
</svg>
