<svg width="81" height="16" viewBox="0 0 81 16" fill="none" xmlns="http://www.w3.org/2000/svg">
<path d="M80.7071 8.70711C81.0976 8.31658 81.0976 7.68342 80.7071 7.29289L74.3431 0.928932C73.9526 0.538408 73.3195 0.538408 72.9289 0.928932C72.5384 1.31946 72.5384 1.95262 72.9289 2.34315L78.5858 8L72.9289 13.6569C72.5384 14.0474 72.5384 14.6805 72.9289 15.0711C73.3195 15.4616 73.9526 15.4616 74.3431 15.0711L80.7071 8.70711ZM0 9H2L2 7H0L0 9ZM6 9H10V7L6 7V9ZM14 9H18V7L14 7V9ZM22 9L26 9V7L22 7V9ZM30 9L34 9V7L30 7V9ZM38 9L42 9V7L38 7V9ZM46 9L50 9V7L46 7V9ZM54 9L58 9V7L54 7V9ZM62 9H66V7L62 7V9ZM70 9H74V7L70 7V9ZM78 9H80V7H78V9ZM80.7071 8.70711C81.0976 8.31658 81.0976 7.68342 80.7071 7.29289L74.3431 0.928932C73.9526 0.538408 73.3195 0.538408 72.9289 0.928932C72.5384 1.31946 72.5384 1.95262 72.9289 2.34315L78.5858 8L72.9289 13.6569C72.5384 14.0474 72.5384 14.6805 72.9289 15.0711C73.3195 15.4616 73.9526 15.4616 74.3431 15.0711L80.7071 8.70711ZM0 9H2L2 7H0L0 9ZM6 9H10V7L6 7V9ZM14 9H18V7L14 7V9ZM22 9L26 9V7L22 7V9ZM30 9L34 9V7L30 7V9ZM38 9L42 9V7L38 7V9ZM46 9L50 9V7L46 7V9ZM54 9L58 9V7L54 7V9ZM62 9H66V7L62 7V9ZM70 9H74V7L70 7V9ZM78 9H80V7H78V9Z" fill="#6366F1"/>
</svg>
