<?xml version="1.0" encoding="UTF-8"?>
<svg xmlns="http://www.w3.org/2000/svg" width="1200" height="750" viewBox="0 0 1200 750" role="img" aria-labelledby="title desc">
  <title id="title">MP4 to Text</title>
  <desc id="desc">UniScribe 博客封面：MP4 to Text</desc>
  <defs>
    <linearGradient id="bg" x1="0" y1="0" x2="1" y2="1">
      <stop offset="0%" stop-color="#f1f0ff"/>
      <stop offset="48%" stop-color="#ffffff"/>
      <stop offset="100%" stop-color="#e8fbf5"/>
    </linearGradient>
    <linearGradient id="panel" x1="0" y1="0" x2="1" y2="1">
      <stop offset="0%" stop-color="#ffffff" stop-opacity="0.96"/>
      <stop offset="100%" stop-color="#f8fafc" stop-opacity="0.88"/>
    </linearGradient>
    <filter id="shadow" x="-20%" y="-20%" width="140%" height="140%">
      <feDropShadow dx="0" dy="22" stdDeviation="22" flood-color="#475569" flood-opacity="0.16"/>
    </filter>
  </defs>
  <rect width="1200" height="750" fill="url(#bg)"/>
  <circle cx="1036" cy="92" r="142" fill="#0ea5e9" opacity="0.11"/>
  <circle cx="166" cy="642" r="184" fill="#6366f1" opacity="0.09"/>
  <path d="M0 558c172-58 274-58 446 0s284 58 456 0 212-58 298 0v192H0z" fill="#ffffff" opacity="0.5"/>
  <g filter="url(#shadow)">
    <rect x="78" y="88" width="1044" height="574" rx="44" fill="url(#panel)" stroke="#dbe3f1" stroke-width="3"/>
  </g>
  <rect x="122" y="132" width="164" height="44" rx="22" fill="#6366f1" opacity="0.12"/>
  <text x="150" y="162" fill="#6366f1" font-family="Arial, sans-serif" font-size="22" font-weight="800">3 steps</text>
  <text x="122" y="252" fill="#111827" font-family="Arial, sans-serif" font-size="64" font-weight="900" letter-spacing="-1">MP4 to Text</text>
  <text x="126" y="309" fill="#64748b" font-family="Arial, sans-serif" font-size="26" font-weight="700">Transcription workflow guide</text>
  <rect x="118" y="239" width="10" height="30" rx="5" fill="#6366f1" opacity="0.95"/><rect x="142" y="223" width="10" height="62" rx="5" fill="#6366f1" opacity="0.55"/><rect x="166" y="233" width="10" height="42" rx="5" fill="#6366f1" opacity="0.55"/><rect x="190" y="210" width="10" height="88" rx="5" fill="#6366f1" opacity="0.95"/><rect x="214" y="227" width="10" height="54" rx="5" fill="#6366f1" opacity="0.55"/><rect x="238" y="200" width="10" height="108" rx="5" fill="#6366f1" opacity="0.55"/><rect x="262" y="219" width="10" height="70" rx="5" fill="#6366f1" opacity="0.95"/><rect x="286" y="232" width="10" height="44" rx="5" fill="#6366f1" opacity="0.55"/><rect x="310" y="213" width="10" height="82" rx="5" fill="#6366f1" opacity="0.55"/><rect x="334" y="225" width="10" height="58" rx="5" fill="#6366f1" opacity="0.95"/><rect x="358" y="237" width="10" height="34" rx="5" fill="#6366f1" opacity="0.55"/><rect x="382" y="221" width="10" height="66" rx="5" fill="#6366f1" opacity="0.55"/><rect x="406" y="206" width="10" height="96" rx="5" fill="#6366f1" opacity="0.95"/><rect x="430" y="230" width="10" height="48" rx="5" fill="#6366f1" opacity="0.55"/><rect x="454" y="216" width="10" height="76" rx="5" fill="#6366f1" opacity="0.55"/><rect x="478" y="235" width="10" height="38" rx="5" fill="#6366f1" opacity="0.95"/>
  
      <rect x="570" y="150" width="250" height="154" rx="24" fill="#fff" stroke="#6366f1" stroke-width="8"/>
      <path d="M670 190l82 38-82 38z" fill="#6366f1" opacity="0.9"/>
      <rect x="606" y="334" width="182" height="24" rx="12" fill="#0ea5e9" opacity="0.75"/>
      <rect x="570" y="384" width="250" height="78" rx="22" fill="#fff" stroke="#dbe3f1" stroke-width="4"/>
      <path d="M612 424h132" stroke="#6366f1" stroke-width="12" stroke-linecap="round"/>
    
  <rect x="122" y="492" width="328" height="72" rx="24" fill="#fff" stroke="#dbe3f1" stroke-width="3"/>
  <circle cx="164" cy="528" r="18" fill="#0ea5e9" opacity="0.88"/>
  <path d="M206 528h188" stroke="#94a3b8" stroke-width="12" stroke-linecap="round"/>
  <rect x="122" y="590" width="184" height="22" rx="11" fill="#6366f1" opacity="0.16"/>
</svg>
